<svg width="378" height="244" viewBox="0 0 378 244" fill="none" xmlns="http://www.w3.org/2000/svg">
<path d="M330.162 76V212C330.162 224.15 320.312 234 308.162 234H72.1619C60.0116 234 50.1619 224.15 50.1619 212V74V32C50.1619 19.8497 60.0116 10 72.1619 10H108.367C115.405 10 122.019 13.3678 126.159 19.0602L138.99 36.7032C146.894 47.5705 159.52 54 172.957 54H308.162C320.312 54 330.162 63.8497 330.162 76Z" fill="white" stroke="black" stroke-width="20"/>
<path d="M366.736 132.098L337.978 218.918C334.995 227.921 326.578 234 317.094 234H64.8723C54.9554 234 46.2644 227.365 43.6503 217.799L10.8579 97.7993C7.03282 83.8017 17.569 70 32.0798 70H111.273C117.249 70 122.968 72.4311 127.114 76.7342L140.21 90.3241C148.127 98.5392 159.045 103.18 170.453 103.18H345.852C360.851 103.18 371.453 117.86 366.736 132.098Z" fill="white" stroke="black" stroke-width="20"/>
</svg>
